<svg width="32" height="32" viewBox="0 0 32 32" fill="none" xmlns="http://www.w3.org/2000/svg">
<path opacity="0.5" d="M16.4667 24.7333L16.3333 24.8667L16.1867 24.7333C9.85333 18.9867 5.66667 15.1867 5.66667 11.3333C5.66667 8.66667 7.66667 6.66667 10.3333 6.66667C12.3867 6.66667 14.3867 8 15.0933 9.81333H17.5733C18.28 8 20.28 6.66667 22.3333 6.66667C25 6.66667 27 8.66667 27 11.3333C27 15.1867 22.8133 18.9867 16.4667 24.7333ZM22.3333 4C20.0133 4 17.7867 5.08 16.3333 6.77333C14.88 5.08 12.6533 4 10.3333 4C6.22667 4 3 7.21333 3 11.3333C3 16.36 7.53333 20.48 14.4 26.7067L16.3333 28.4667L18.2667 26.7067C25.1333 20.48 29.6667 16.36 29.6667 11.3333C29.6667 7.21333 26.44 4 22.3333 4Z" fill="#160502"/>
</svg>
